<?xml version="1.0" encoding="utf-8"?>
<!-- Generator: Adobe Illustrator 24.1.0, SVG Export Plug-In . SVG Version: 6.00 Build 0)  -->
<svg version="1.1" id="Capa_1" xmlns="http://www.w3.org/2000/svg" xmlns:xlink="http://www.w3.org/1999/xlink" x="0px" y="0px"
	 viewBox="0 0 394 394" style="enable-background:new 0 0 394 394;" xml:space="preserve">
<style type="text/css">
	.st0{fill:#186A3B;}
</style>
<g>
	<g>
		<path class="st0" d="M344,85.7H239.8V71c0-23.6-19.2-42.8-42.8-42.8S154.2,47.4,154.2,71v14.7H50c-27.6,0-50,22.4-50,50v180
			c0,27.6,22.4,50,50,50h294c27.6,0,50-22.4,50-50v-180C394,108.1,371.6,85.7,344,85.7z M183,287c0,4.4-1.4,8.4-3.8,11.6v-3.5
			c0-10.1-8.2-18.3-18.3-18.3h-27.8C151,271.5,164,255,164,235.5c0-23.9-19.4-43.2-43.2-43.2c-23.9,0-43.2,19.4-43.2,43.2
			c0,19.5,13,36,30.8,41.4H80.6c-10.1,0-18.3,8.2-18.3,18.3v3.5c-2.4-3.3-3.8-7.3-3.8-11.6v-84.5c0-11,9-20,20-20H163
			c11,0,20,9,20,20L183,287L183,287L183,287z M212.8,102.5c0,8.7-7.1,15.8-15.8,15.8c-8.7,0-15.8-7.1-15.8-15.8V71
			c0-8.7,7.1-15.8,15.8-15.8s15.8,7.1,15.8,15.8V102.5z M315.3,271.8c0,11-9,20-20,20h-50c-11,0-20-9-20-20v-2.3c0-11,9-20,20-20h50
			c11,0,20,9,20,20V271.8z M337.3,205.8c0,11-9,20-20,20h-72c-11,0-20-9-20-20v-2.3c0-11,9-20,20-20h72c11,0,20,9,20,20V205.8z"/>
	</g>
</g>
</svg>
