<?xml version="1.0" encoding="utf-8"?>
<!-- Generator: Adobe Illustrator 24.1.0, SVG Export Plug-In . SVG Version: 6.00 Build 0)  -->
<svg version="1.1" id="Capa_1" xmlns="http://www.w3.org/2000/svg" xmlns:xlink="http://www.w3.org/1999/xlink" x="0px" y="0px"
	 viewBox="0 0 44.7 44.7" style="enable-background:new 0 0 44.7 44.7;" xml:space="preserve">
<style type="text/css">
	.st0{fill:#186A3B;}
</style>
<path class="st0" d="M13.2,18.6c0,0-0.1-0.7-0.1-1c0.2-0.1,0.3-0.2,0.5-0.3c0.3,0.1,0.8,0.5,0.8,0.5l0.9-0.2l1-1.7L16,14.9
	c0,0-0.7-0.4-1-0.6c0-0.2,0-0.4-0.1-0.6c0.3-0.2,0.8-0.7,0.8-0.7v-0.9l-1.3-1.5h-0.9c0,0-0.4,0.4-0.7,0.6c-0.2-0.1-0.5-0.2-0.7-0.3
	c0-0.3-0.1-0.8-0.1-0.8l-0.6-0.6l-2,0.2l-0.6,0.6c0,0,0.1,0.7,0.1,1c-0.2,0.1-0.4,0.2-0.6,0.4c-0.3-0.1-0.8-0.4-0.8-0.4l-0.9,0.2
	l-0.8,1.8l0,0.1l0.3,0.8c0,0,0.7,0.3,1,0.4c0,0.2,0,0.4,0.1,0.6c-0.3,0.2-0.7,0.6-0.7,0.6v0.9l1.3,1.5c0,0,0.8,0.1,0.8,0.1
	c0,0,0.1-0.1,0.1-0.1s0.5-0.4,0.7-0.6c0.2,0.1,0.4,0.2,0.6,0.2c0,0.3,0.1,0.8,0.1,0.8l0.6,0.6l2-0.2L13.2,18.6z M10.8,16.5
	c-1.1,0-2-0.9-2-2c0-1.1,0.9-2,2-2c1.1,0,2,0.9,2,2C12.8,15.6,11.9,16.5,10.8,16.5z"/>
<path class="st0" d="M18.7,25.2c0,0,0-0.5-0.1-0.8c0.1-0.1,0.2-0.1,0.4-0.2c0.2,0.1,0.6,0.3,0.6,0.3l0.7-0.2L21,23l-0.2-0.7
	c0,0-0.5-0.3-0.8-0.4c0-0.1,0-0.3-0.1-0.4c0.2-0.2,0.6-0.5,0.6-0.5v-0.7l-1-1.2H19c0,0-0.3,0.3-0.5,0.4c-0.2-0.1-0.4-0.2-0.6-0.2
	c0-0.2,0-0.6,0-0.6l-0.5-0.5l-1.5,0.1l-0.5,0.5c0,0,0,0.5,0.1,0.8c-0.1,0.1-0.3,0.2-0.4,0.3c-0.2-0.1-0.6-0.3-0.6-0.3l-0.7,0.2
	l-0.6,1.4l0,0.1l0.2,0.6c0,0,0.5,0.2,0.7,0.3c0,0.2,0,0.3,0.1,0.5c-0.2,0.2-0.6,0.5-0.6,0.5v0.7l1,1.2c0,0,0.6,0.1,0.6,0.1
	s0.1-0.1,0.1-0.1s0.4-0.3,0.5-0.5c0.2,0.1,0.3,0.1,0.5,0.2c0,0.2,0.1,0.6,0.1,0.6l0.5,0.5l1.5-0.1L18.7,25.2z M16.9,23.6
	c-0.8,0-1.5-0.7-1.5-1.5c0-0.8,0.7-1.5,1.5-1.5c0.8,0,1.5,0.7,1.5,1.5C18.5,22.9,17.8,23.6,16.9,23.6z"/>
<path class="st0" d="M32.7,6.1c-6.4,0-12.8,0-19.3,0c-1.6,0-1.6,2.5,0,2.5c6.4,0,12.8,0,19.3,0C34.3,8.6,34.3,6.1,32.7,6.1z"/>
<path class="st0" d="M32.7,12c-6.4,0-2.8,0-9.3,0c-1.6,0-1.6,2.5,0,2.5c6.4,0,2.8,0,9.3,0C34.3,14.5,34.3,12,32.7,12z"/>
<polygon class="st0" points="7.2,3 36.3,3 36.3,18.9 39.3,18.9 39.3,0 4.2,0 4.2,9.8 7.2,9.8 "/>
<path class="st0" d="M34,35.8c0-0.3,0-0.6-0.1-0.9c0.4-0.4,1.3-1.1,1.3-1.1l0-1.5l-2.1-2.6l-1.5,0c0,0-0.7,0.6-1.1,0.9
	c-0.4-0.2-0.8-0.4-1.2-0.5c0-0.4-0.1-1.3-0.1-1.3l-1-1.1L25,27.8l-1.1,1c0,0,0.1,1.1,0.1,1.7c-0.3,0.2-0.6,0.4-0.9,0.6
	c-0.5-0.2-1.4-0.7-1.4-0.7l-1.5,0.3l-1.5,3l-0.1,0.2l0.4,1.3c0,0,1.1,0.5,1.6,0.8c0,0.4,0.1,0.7,0.1,1c-0.4,0.3-1.3,1-1.3,1l0,1.5
	l2.1,2.6c0,0,1.2,0.2,1.3,0.2s0.2-0.1,0.2-0.1s0.8-0.6,1.2-1c0.3,0.2,0.7,0.3,1,0.4c0,0.4,0.1,1.3,0.1,1.3l1,1.1l3.3-0.2l1.1-1
	c0,0-0.1-1.1-0.1-1.7c0.3-0.1,0.5-0.3,0.8-0.5c0.4,0.3,1.3,0.8,1.3,0.8l1.5-0.3l1.8-2.8l-0.3-1.5C35.6,36.8,34.5,36.1,34,35.8z
	 M27,39.2c-1.8-0.1-3.3-1.6-3.2-3.4c0.1-1.8,1.6-3.3,3.4-3.2c1.8,0.1,3.3,1.6,3.2,3.4C30.4,37.8,28.8,39.2,27,39.2z"/>
<path class="st0" d="M40.1,28.7c0,0-1.2-0.7-1.8-1.1c0-0.3,0-0.7-0.1-1c0.5-0.4,1.5-1.2,1.5-1.2l0.1-1.6l-2.2-2.8L35.9,21
	c0,0-0.8,0.6-1.2,1c-0.4-0.2-0.8-0.4-1.3-0.5c0-0.5-0.1-1.4-0.1-1.4l-1.1-1.2L28.7,19l-1.2,1.1c0,0,0.1,1.2,0.1,1.8
	c-0.4,0.2-0.7,0.4-1,0.6c-0.5-0.2-1.5-0.7-1.5-0.7l-1.6,0.4l-1.6,3.2l-0.1,0.2l0.4,1.4c0,0,0.7,0.4,1.3,0.7l0.7-0.6l0.3-0.3l0.4,0
	l2.7-0.1c0.5-1.5,1.9-2.6,3.5-2.5c2,0.1,3.5,1.7,3.5,3.7c0,0.5-0.2,1-0.4,1.5l1.9,2.3l0.2,0.3l0,0.4l0,1c0.4,0.2,0.8,0.5,0.8,0.5
	l1.6-0.4l1.9-3L40.1,28.7z"/>
</svg>
