<?xml version="1.0" encoding="utf-8"?>
<!-- Generator: Adobe Illustrator 24.1.0, SVG Export Plug-In . SVG Version: 6.00 Build 0)  -->
<svg version="1.1" id="Capa_1" xmlns="http://www.w3.org/2000/svg" xmlns:xlink="http://www.w3.org/1999/xlink" x="0px" y="0px"
	 viewBox="0 0 512 512" style="enable-background:new 0 0 512 512;" xml:space="preserve">
<style type="text/css">
	.st0{fill:#186A3B;}
</style>
<g>
	<g>
		<path class="st0" d="M251.6,185.7c-36.9,0-67,31.5-67,70.3c0,38.7,30,70.3,67,70.3c36.9,0,67-31.5,67-70.3
			C318.6,217.3,288.5,185.7,251.6,185.7L251.6,185.7z"/>
		<path class="st0" d="M251.6,367.1c-59.4,0-107.8-49.8-107.8-111.1s48.4-111.1,107.8-111.1S359.4,194.7,359.4,256
			S311,367.1,251.6,367.1L251.6,367.1z M497.9,245.2C434.1,142.8,348.1,86.4,256,86.4S77.9,142.8,14.1,245.2c-4.1,6.6-4.1,15,0,21.6
			C77.9,369.2,163.9,425.6,256,425.6s178-56.4,241.9-158.8C502,260.2,502,251.8,497.9,245.2L497.9,245.2z"/>
	</g>
</g>
</svg>
