<?xml version="1.0" encoding="utf-8"?>
<!-- Generator: Adobe Illustrator 24.1.0, SVG Export Plug-In . SVG Version: 6.00 Build 0)  -->
<svg version="1.1" id="Capa_1" xmlns="http://www.w3.org/2000/svg" xmlns:xlink="http://www.w3.org/1999/xlink" x="0px" y="0px"
	 viewBox="0 0 203 154.7" style="enable-background:new 0 0 203 154.7;" xml:space="preserve">
<style type="text/css">
	.st0{fill:#42BF32;}
	.st1{fill:none;}
	.st2{fill:#FFFFFF;}
	.st3{fill:#080D26;}
	.st4{fill:none;stroke:#000000;stroke-width:2;stroke-linecap:round;stroke-linejoin:round;}
</style>
<path class="st0" d="M38.5,80.4c0,3.1-1.3,6.3-3.1,8.2v10.1c0.6-1.9,1.9-3.8,3.1-5c2.5-2.5,6.3-4.4,10.1-3.8c0,3.8-1.3,7.5-3.8,10.1
	c-2.5,2.5-5.7,3.8-9.4,3.8v15.1c0.6-1.9,1.9-3.8,3.1-5c2.5-2.5,6.3-4.4,10.1-3.8c0.6,3.8-1.3,7.5-3.8,10.1c-2.5,2.5-5.7,3.8-9.4,3.8
	v15.1c0.6-1.9,1.9-3.8,3.1-5c2.5-2.5,6.3-4.4,10.1-3.8c0.6,3.8-1.3,7.5-3.8,10.1c-2.5,2.5-5.7,3.8-9.4,3.8l0,0h-3.1l0,0
	c-3.8,0-6.9-1.3-9.4-3.8s-4.4-6.3-3.8-10.1c3.8-0.6,7.5,1.3,10.1,3.8c1.3,1.3,2.5,3.1,3.1,5V124c-3.8,0-6.9-1.3-9.4-3.8
	s-4.4-6.3-3.8-10.1c3.8-0.6,7.5,1.3,10.1,3.8c1.3,1.3,2.5,3.1,3.1,5v-15.1c-3.8,0-6.9-1.3-9.4-3.8s-4.4-6.3-3.8-10.1
	c3.8-0.6,7.5,1.3,10.1,3.8c1.3,1.3,2.5,3.1,3.1,5V88c-1.9-2.5-2.5-5-2.5-8.2c0-3.8,1.3-7.5,4.4-10.1C36.6,72.9,38.5,76.7,38.5,80.4z
	"/>
<path class="st0" d="M176.3,80.4c0,3.1-1.3,6.3-3.1,8.2v10.1c0.6-1.9,1.9-3.8,3.1-5c2.5-2.5,6.3-4.4,10.1-3.8
	c0.6,3.8-1.3,7.5-3.8,10.1c-2.5,2.5-5.7,3.8-9.4,3.8v15.1c0.6-1.9,1.9-3.8,3.1-5c2.5-2.5,6.3-4.4,10.1-3.8c0.6,3.8-1.3,7.5-3.8,10.1
	c-2.5,2.5-5.7,3.8-9.4,3.8v15.1c0.6-1.9,1.9-3.8,3.1-5c2.5-2.5,6.3-4.4,10.1-3.8c0.6,3.8-1.3,7.5-3.8,10.1c-2.5,2.5-5.7,3.8-9.4,3.8
	l0,0H170l0,0c-3.8,0-6.9-1.3-9.4-3.8s-4.4-6.3-3.8-10.1c3.8-0.6,7.5,1.3,10.1,3.8c1.3,1.3,2.5,3.1,3.1,5V124c-3.8,0-6.9-1.3-9.4-3.8
	s-4.4-6.3-3.8-10.1c3.8-0.6,7.5,1.3,10.1,3.8c1.3,1.3,2.5,3.1,3.1,5v-15.1c-3.8,0-6.9-1.3-9.4-3.8s-4.4-6.3-3.8-10.1
	c3.8-0.6,7.5,1.3,10.1,3.8c1.3,1.3,2.5,3.1,3.1,5V88c-1.9-2.5-2.5-5-2.5-8.2c0-3.8,1.3-7.5,4.4-10.1C175,72.9,176.3,76.7,176.3,80.4
	z"/>
<ellipse class="st1" cx="103.3" cy="79.8" rx="19.5" ry="20.8"/>
<path class="st2" d="M149.2,62.8c0-3.8-10.1-7.5-25.2-8.8l-7.5-15.1c-1.9-3.8-6.3-6.9-10.7-6.9h-5c-4.4,0-8.8,2.5-10.7,6.9
	l-7.5,15.7c-14.5,1.9-25.2,5-25.2,8.8s8.8,6.9,22.6,8.8c0,1.3-0.6,1.9-0.6,3.1v6.9c-0.6,12,9.4,22.6,21.4,22.6
	c12,0.6,22.6-9.4,22.6-21.4c0-0.6,0-0.6,0-1.3v-6.7c0-1.3,0-1.9-0.6-3.1C139.2,69.7,149.2,66.6,149.2,62.8z M120.3,81.1
	c-0.6,9.4-8.2,17-17.6,17c-9.4-0.6-16.4-7.5-17-17v-6.9c0-6.3,5-10.7,10.7-10.7H109c6.3,0,10.7,5,10.7,10.7L120.3,81.1L120.3,81.1z"
	/>
<path d="M110.2,83c-1.9-1.3-3.8-1.9-5.7-0.6l-1.3,0.6l-1.3-0.6c-1.9-0.6-4.4-0.6-5.7,0.6l-5,4.4c0,0,8.8,3.8,12.6-1.9
	c3.8,5.7,12.6,1.9,12.6,1.9L110.2,83z"/>
<path class="st2" d="M100.2,71c-1.3-1.3-3.1-1.9-4.4-1.9c-1.9,0-3.8,0.6-5,2.5c-0.6,0.6-0.6,1.3,0,1.9l0,0l0.6,0.6
	c0.6,0,0.6,0,1.3,0c0.6,0,0.6-0.6,1.3-0.6v0.6c0,1.3,1.3,1.9,1.9,1.9c1.3,0,1.9-0.6,1.9-1.9v-0.6h0.6c0.6,0,1.3,0,1.9,0
	s0.6,0,0.6-0.6C100.2,72.3,100.2,71.6,100.2,71z M97.6,72.3L97.6,72.3L97.6,72.3z"/>
<path class="st2" d="M115.9,71c-1.3-1.3-3.1-1.9-4.4-1.9c-1.9,0-3.8,0.6-5,2.5c-0.6,0.6-0.6,1.3,0,1.9l0,0l0.6,0.6
	c0.6,0,0.6,0,1.3,0c0.6,0,0.6-0.6,1.3-0.6v0.6c0,1.3,1.3,1.9,1.9,1.9c1.3,0,1.9-0.6,1.9-1.9v-0.6h0.6c0.6,0,1.3,0,1.9,0
	s0.6,0,0.6-0.6C116.5,72.3,116.5,71.6,115.9,71z M113.4,72.3L113.4,72.3L113.4,72.3L113.4,72.3z"/>
<path class="st2" d="M124.7,104.3c-3.1-1.3-6.3-1.3-8.8,0c-8.2,3.8-18.2,3.8-26.4,0c-3.1-1.3-6.3-1.3-8.8,0
	c-15.1,6.9-25.2,22.6-25.2,39v1.9h95v-1.9C150.5,126.4,140.4,111.3,124.7,104.3z"/>
<path class="st3" d="M78.1,130.1h50.3c1.9,0,3.1,1.3,3.1,3.1l0,0v13.2l0,0H75l0,0v-13.2C75,131.4,76.2,130.8,78.1,130.1z"/>
<path class="st3" d="M88.2,125.1v-15.7c0-0.6-0.6-1.9-1.3-1.9c-1.9-0.6-4.4-0.6-6.3,0.6c-0.6,0.6-1.3,1.3-1.3,1.9v15.1
	c0,1.3,0.6,1.9,1.9,1.9h5C87.6,127,88.2,126.4,88.2,125.1z"/>
<path class="st3" d="M117.1,125.1v-15.7c0-0.6,0.6-1.9,1.3-1.9c1.9-0.6,4.4-0.6,6.3,0.6c0.6,0.6,1.3,1.3,1.3,1.9v15.1
	c0,1.3-0.6,1.9-1.9,1.9h-5C118.4,127,117.1,126.4,117.1,125.1z"/>
<circle class="st2" cx="83.8" cy="139.6" r="3.1"/>
<circle class="st2" cx="122.2" cy="139.6" r="3.1"/>
<path class="st4" d="M12.7,144c-22-49.1-0.6-106.3,48.4-129s106.3-0.6,129,48.4c12,25.8,12,56-0.6,81.8"/>
</svg>
