<?xml version="1.0" encoding="utf-8"?>
<!-- Generator: Adobe Illustrator 24.1.0, SVG Export Plug-In . SVG Version: 6.00 Build 0)  -->
<svg version="1.1" id="Capa_1" xmlns="http://www.w3.org/2000/svg" xmlns:xlink="http://www.w3.org/1999/xlink" x="0px" y="0px"
	 viewBox="0 0 297 297" style="enable-background:new 0 0 297 297;" xml:space="preserve">
<style type="text/css">
	.st0{fill:#186A3B;}
</style>
<g>
	<path class="st0" d="M112.6,185.1l6.9-4c2.8-1.6,3.8-5.2,2.1-8l-13-22.6c-1.1-1.9-3.1-2.9-5.1-2.9c-1,0-2,0.3-2.9,0.8l-6.9,4
		c-0.9,0.5-1.9,0.8-2.9,0.8c-3.1,0-5.9-2.4-5.9-5.9v-7.9c0-3.2-2.6-5.9-5.9-5.9H53c-3.2,0-5.9,2.6-5.9,5.9v7.9
		c0,3.4-2.8,5.9-5.9,5.9c-1,0-2-0.2-2.9-0.8l-6.9-4c-0.9-0.5-1.9-0.8-2.9-0.8c-2,0-4,1.1-5.1,2.9l-13,22.6c-1.6,2.8-0.7,6.4,2.1,8
		l6.9,4c3.9,2.3,3.9,7.9,0,10.2l-6.9,4c-2.8,1.6-3.8,5.2-2.1,8l13,22.6c1.1,1.9,3.1,2.9,5.1,2.9c1,0,2-0.3,2.9-0.8l6.9-4
		c0.9-0.5,1.9-0.8,2.9-0.8c3.1,0,5.9,2.4,5.9,5.9v7.9c0,3.2,2.6,5.9,5.9,5.9h26.1c3.2,0,5.9-2.6,5.9-5.9V233c0-3.4,2.8-5.9,5.9-5.9
		c1,0,2,0.2,2.9,0.8l6.9,4c0.9,0.5,1.9,0.8,2.9,0.8c2,0,4-1.1,5.1-2.9l13-22.6c1.6-2.8,0.7-6.4-2.1-8l-6.9-4
		C108.7,193,108.7,187.3,112.6,185.1z M66,207.5c-9.6,0-17.4-7.8-17.4-17.4c0-9.6,7.8-17.4,17.4-17.4s17.4,7.8,17.4,17.4
		S75.6,207.5,66,207.5z"/>
	<path class="st0" d="M108.1,23.7c-3.1-3.1-8.2-3.1-11.4,0c-3.1,3.1-3.1,8.2,0,11.4l14.4,14.4c-52.9,2.6-95.7,44.2-100.3,96.5
		l1.2-2.1c3.4-5.9,9.8-9.6,16.6-9.6c0.1,0,0.3,0,0.4,0c9.1-37.7,42-66.3,81.8-68.7L96.7,79.7c-3.1,3.1-3.1,8.2,0,11.4
		c1.6,1.6,3.6,2.4,5.7,2.4s4.1-0.8,5.7-2.4l28-28c1.5-1.5,2.4-3.6,2.4-5.7c0-2.1-0.8-4.2-2.4-5.7C136.1,51.7,108.1,23.7,108.1,23.7z
		"/>
	<path class="st0" d="M209.9,64.9c17.9,0,32.4-14.5,32.4-32.4c0-17.9-14.5-32.4-32.4-32.4s-32.4,14.5-32.4,32.4S192,64.9,209.9,64.9
		L209.9,64.9z"/>
	<path class="st0" d="M273,152.3v-44.6c0-12.3-7.9-23.3-19.7-27.1l-0.1,0l-17.2-2.8c-1.5-0.4-3,0.3-3.5,1.8l-19.5,53.4
		c-1.1,3.1-5.5,3.1-6.6,0l-19.5-53.4c-0.4-1.2-1.5-1.9-2.7-1.9c-0.3,0-18,3-18,3c-11.8,3.9-19.7,14.9-19.7,27.3v44.4
		c0,6.7,5.4,12.1,12.1,12.1H261C267.6,164.3,273,158.9,273,152.3z"/>
	<path class="st0" d="M287.4,162.9c-0.7,9.2-8.2,14.9-17.5,15.5c-7.1,40.4-41.2,71.6-83,74.2l14.1-14.1c3.1-3.1,3.1-8.2,0-11.4
		c-3.1-3.1-8.2-3.1-11.4,0l-28,28c-3.1,3.1-3.1,8.2,0,11.4l28,28c1.6,1.6,3.6,2.4,5.7,2.4s4.1-0.8,5.7-2.4c3.1-3.1,3.1-8.2,0-11.4
		l-14.4-14.4C242.6,266.1,287.4,219.6,287.4,162.9L287.4,162.9z"/>
	<path class="st0" d="M216.9,77.1c-0.7-0.8-1.8-1.2-2.9-1.2h-8.2c-1.1,0-2.2,0.4-2.9,1.2c-1.2,1.3-1.3,3.1-0.5,4.5l4.4,6.6
		l-2.1,17.4l4.1,10.8c0.4,1.1,1.9,1.1,2.3,0l4.1-10.8L213,88.3l4.4-6.6C218.3,80.2,218.1,78.4,216.9,77.1z"/>
</g>
</svg>
